<?xml version="1.0" ?><!DOCTYPE svg  PUBLIC '-//W3C//DTD SVG 1.1//EN'  'http://www.w3.org/Graphics/SVG/1.1/DTD/svg11.dtd'><svg height="8.4666mm" style="shape-rendering:geometricPrecision; text-rendering:geometricPrecision; image-rendering:optimizeQuality; fill-rule:evenodd; fill: #ccc; clip-rule:evenodd" version="1.1" viewBox="0 0 846.66 846.66" width="8.4666mm" xml:space="preserve" xmlns="http://www.w3.org/2000/svg" xmlns:xlink="http://www.w3.org/1999/xlink"><defs><style type="text/css">
   <![CDATA[
    .fil0 {fill:#cccccc;fill-rule:nonzero}
   ]]>
  </style></defs><g id="Layer_x0020_1"><path style="fill: #eee;" class="fil0" d="M197.13 315.84c73.49,8.07 129.28,70.39 129.28,144.44 0,9.01 -0.82,17.82 -2.39,26.37l136.55 0c26.23,-59.54 85.16,-98.2 150.55,-98.2 65.4,0 124.32,38.66 150.56,98.2l35.25 0 0 -414.93 -599.8 0 0 244.12zm331.5 244.46c-14.47,-22.99 20.53,-45.02 35,-22.03l20.29 32.14 77.05 -82.88c18.54,-19.93 48.83,8.26 30.29,28.19l-95.32 102.54c-9.23,9.77 -25.35,8.51 -32.64,-3.08l-34.67 -54.88zm-40.48 -7.4c0,67.91 55.06,122.97 122.97,122.97 67.92,0 122.97,-55.06 122.97,-122.97 0,-66.86 -54.02,-122.98 -122.97,-122.98 -67.91,0 -122.97,55.06 -122.97,122.98zm-39.62 -24.78l-138.9 0c-6.25,11.83 -14.09,22.68 -23.22,32.29 42.38,32.75 67.5,83.07 67.5,136.79l0 98.48c0,11.45 -9.28,20.73 -20.73,20.73l-304.19 0c-11.45,0 -20.73,-9.28 -20.73,-20.73l0 -98.48c0,-53.73 25.12,-104.03 67.51,-136.79 -24.79,-26.06 -40.01,-61.32 -40.01,-100.13 0,-70.48 50.67,-130.89 119.9,-143.11l0 -266.18c0,-11.46 9.28,-20.74 20.73,-20.74l641.28 0c11.45,0 20.73,9.28 20.73,20.74l0 456.4c0,11.45 -9.28,20.73 -20.73,20.73l-43.96 0c1.22,8.08 1.86,16.36 1.86,24.78 0,90.81 -73.63,164.44 -164.45,164.44 -90.82,0 -164.44,-73.62 -164.44,-164.44 0,-8.43 0.63,-16.7 1.85,-24.78zm109.89 -337.24c-27.28,0 -27.28,-41.47 0,-41.47l128.54 0c27.27,0 27.27,41.47 0,41.47l-128.54 0zm0 86.66c-27.28,0 -27.28,-41.47 0,-41.47l128.54 0c27.27,0 27.27,41.47 0,41.47l-128.54 0zm-251.32 -150.51l172.6 0c11.45,0 20.74,9.28 20.74,20.73l0 131.42c0,11.46 -9.29,20.74 -20.74,20.74l-172.6 0c-11.45,0 -20.73,-9.28 -20.73,-20.74l0 -131.42c0,-11.45 9.28,-20.73 20.73,-20.73zm151.86 41.47l-131.12 0 0 89.95 131.12 0 0 -89.95zm-381.73 291.78c0,57.57 46.71,103.85 103.86,103.85 56.96,0 103.85,-46.12 103.85,-103.85 0,-57.35 -46.5,-103.85 -103.85,-103.85 -57.33,0 -103.86,46.49 -103.86,103.85zm175.07 126.71c-21.05,11.85 -45.34,18.62 -71.21,18.62 -25.88,0 -50.17,-6.77 -71.22,-18.62 -37.36,24.29 -60.14,65.53 -60.14,110.21l0 77.74 262.71 0 0 -77.74c0,-44.68 -22.78,-85.92 -60.14,-110.21z"/></g></svg>