<svg width="30" height="30" viewBox="0 0 30 30" fill="none" xmlns="http://www.w3.org/2000/svg">
<g clip-path="url(#clip0_67_413)">
<path d="M16.3966 12.4185L17.2572 13.6431L18.5811 12.6833V19.6339H20.0043V10.4988H18.8128L16.3966 12.4185Z" fill="#1E88E5"/>
<path d="M14.1129 14.8015C14.6425 14.3382 14.9734 13.6431 14.9734 12.9149C14.9734 11.4586 13.6826 10.2671 12.127 10.2671C10.8031 10.2671 9.64465 11.0945 9.34677 12.3192L10.7369 12.6833C10.8693 12.1206 11.465 11.7234 12.127 11.7234C12.9214 11.7234 13.5502 12.253 13.5502 12.9149C13.5502 13.5769 12.9214 14.1065 12.127 14.1065H11.2996V15.5628H12.127C13.0207 15.5628 13.7819 16.1917 13.7819 16.9198C13.7819 17.6811 13.0538 18.2768 12.1601 18.2768C11.3658 18.2768 10.6707 17.7804 10.5714 17.0853L9.18127 17.317C9.41296 18.674 10.7038 19.7001 12.1932 19.7001C13.8812 19.7001 15.2382 18.4423 15.2382 16.8867C15.2051 16.0593 14.7749 15.298 14.1129 14.8015Z" fill="#1E88E5"/>
<path d="M23.3472 29.9935H6.66577V23.3408H23.3472V29.9935Z" fill="#FBC02D"/>
<path d="M30 23.3409V6.65942H23.3473V23.3409H30Z" fill="#4CAF50"/>
<path d="M23.3473 6.65932V0.0065918H2.49544C1.10532 0.0065918 -0.0200195 1.13193 -0.0200195 2.52205V23.3739H6.63271V6.65932H23.3473Z" fill="#1E88E5"/>
<path d="M23.3473 23.3408V29.9935L30 23.3408H23.3473Z" fill="#E53935"/>
<path d="M27.5177 0.0065918H23.3473V6.65932H30V2.48895C30 1.09883 28.9078 0.0065918 27.5177 0.0065918Z" fill="#1565C0"/>
<path d="M2.49542 29.9935H6.66579V23.3408H0.0130615V27.5112C0.0130615 28.9013 1.1053 29.9935 2.49542 29.9935Z" fill="#1565C0"/>
</g>
<defs>
<clipPath id="clip0_67_413">
<rect width="30" height="30" fill="white"/>
</clipPath>
</defs>
</svg>
