<svg width="49" height="56" viewBox="0 0 49 56" fill="none" xmlns="http://www.w3.org/2000/svg">
<g clip-path="url(#clip0_67_442)">
<path d="M49 22.9589C44.1847 22.9704 39.4875 21.4687 35.572 18.6659V38.2134C35.5707 41.8339 34.4641 45.3676 32.4002 48.3421C30.3363 51.3166 27.4135 53.5902 24.0226 54.8587C20.6317 56.1273 16.9344 56.3304 13.4249 55.4409C9.9155 54.5513 6.76126 52.6116 4.384 49.8811C2.00673 47.1505 0.519739 43.7593 0.121864 40.1608C-0.276011 36.5623 0.434192 32.9281 2.15751 29.7442C3.88082 26.5602 6.53511 23.9782 9.76545 22.3435C12.9958 20.7088 16.6482 20.0993 20.2343 20.5964V30.4281C18.5933 29.912 16.8312 29.9275 15.1995 30.4726C13.5679 31.0176 12.1502 32.0643 11.1489 33.4631C10.1476 34.862 9.61387 36.5414 9.624 38.2617C9.63414 39.9819 10.1876 41.655 11.2053 43.042C12.223 44.4289 13.6529 45.4588 15.2909 45.9846C16.9288 46.5104 18.6911 46.5052 20.3259 45.9697C21.9607 45.4343 23.3845 44.3959 24.394 43.003C25.4035 41.61 25.947 39.9337 25.947 38.2134V0H35.572C35.5653 0.812809 35.6334 1.62451 35.7754 2.42484C36.1099 4.21146 36.8053 5.91107 37.8191 7.41971C38.833 8.92835 40.1439 10.2143 41.6718 11.1989C43.8455 12.6362 46.394 13.4023 49 13.4017V22.9589Z" fill="white"/>
</g>
<defs>
<clipPath id="clip0_67_442">
<rect width="49" height="56" fill="white"/>
</clipPath>
</defs>
</svg>
