<svg width="69" height="48" viewBox="0 0 69 48" fill="none" xmlns="http://www.w3.org/2000/svg">
<path d="M68.5511 10.5184C68.5511 9.96482 67.6491 5.53601 65.5445 3.59841C62.8385 0.830402 59.8319 0.553601 58.3286 0.553601H58.0279C48.7073 1.2374e-07 34.8769 0 34.5762 0C34.5762 0 20.4451 1.2374e-07 11.1245 0.553601H10.8239C9.32054 0.553601 6.31392 0.830402 3.60795 3.59841C1.50331 5.81281 0.601325 10.2416 0.601325 10.7952C0.601325 11.072 0 16.0544 0 21.3136V26.0193C0 31.2785 0.601325 36.2609 0.601325 36.5377C0.601325 37.0913 1.50331 41.5201 3.60795 43.4577C6.01325 45.9489 9.01988 46.2257 10.8239 46.5025C11.1245 46.5025 11.4252 46.5025 11.7258 46.5025C17.1378 47.0561 33.6742 47.0561 34.2755 47.0561C34.2755 47.0561 48.4067 47.0561 57.7272 46.5025H58.0279C59.5312 46.2257 62.5378 45.9489 65.2438 43.4577C67.3484 41.2433 68.2504 36.8145 68.2504 36.2609C68.2504 35.9841 68.8517 31.0017 68.8517 25.7425V21.0368C69.1524 16.0544 68.5511 10.7952 68.5511 10.5184ZM46.302 24.0816L28.2623 32.9393C27.9616 32.9393 27.9616 33.2161 27.661 33.2161C27.3603 33.2161 27.0596 33.2161 27.0596 32.9393C26.759 32.6625 26.4583 32.3857 26.4583 31.8321V13.84C26.4583 13.2864 26.759 13.0096 27.0596 12.7328C27.3603 12.456 27.9616 12.456 28.563 12.7328L46.6027 21.5904C47.204 21.8672 47.5047 22.144 47.5047 22.6976C47.5047 23.2512 46.9034 23.8048 46.302 24.0816Z" fill="white"/>
</svg>
