<svg width="19" height="19" viewBox="0 0 19 19" fill="none" xmlns="http://www.w3.org/2000/svg">
<path d="M1.27344 6.8894H17.5947M6.71387 12.3298L8.52734 14.1433L12.1543 10.5164M4.90039 1.44897V3.26245M13.9678 1.44897V3.26245M4.175 17.7703H14.6932C15.7088 17.7703 16.2167 17.7703 16.6046 17.5726C16.9458 17.3988 17.2232 17.1213 17.3971 16.7801C17.5947 16.3922 17.5947 15.8843 17.5947 14.8687V6.16401C17.5947 5.14837 17.5947 4.64055 17.3971 4.25263C17.2232 3.91139 16.9458 3.63397 16.6046 3.46011C16.2167 3.26245 15.7088 3.26245 14.6932 3.26245H4.175C3.15936 3.26245 2.65153 3.26245 2.26361 3.46011C1.92238 3.63397 1.64496 3.91139 1.4711 4.25263C1.27344 4.64055 1.27344 5.14837 1.27344 6.16401V14.8687C1.27344 15.8843 1.27344 16.3922 1.4711 16.7801C1.64496 17.1213 1.92238 17.3988 2.26361 17.5726C2.65153 17.7703 3.15935 17.7703 4.175 17.7703Z" stroke="#EEEEEE" stroke-width="2" stroke-linecap="round" stroke-linejoin="round"/>
</svg>
