<svg width="125" height="104" viewBox="0 0 125 104" fill="none" xmlns="http://www.w3.org/2000/svg">
<path fill-rule="evenodd" clip-rule="evenodd" d="M26.5099 38.6353C30.515 38.6353 34.356 37.0443 37.1879 34.2124C40.0199 31.3804 41.6109 27.5394 41.6109 23.5343C41.6109 19.5293 40.0199 15.6883 37.1879 12.8563C34.356 10.0243 30.515 8.43332 26.5099 8.43332C22.5049 8.43332 18.6639 10.0243 15.8319 12.8563C12.9999 15.6883 11.4089 19.5293 11.4089 23.5343C11.4089 27.5394 12.9999 31.3804 15.8319 34.2124C18.6639 37.0443 22.5049 38.6353 26.5099 38.6353ZM26.5099 46.1858C29.4846 46.1858 32.4301 45.5999 35.1783 44.4616C37.9265 43.3233 40.4236 41.6548 42.527 39.5514C44.6303 37.448 46.2988 34.9509 47.4372 32.2027C48.5755 29.4545 49.1614 26.509 49.1614 23.5343C49.1614 20.5597 48.5755 17.6142 47.4372 14.866C46.2988 12.1178 44.6303 9.62068 42.527 7.51729C40.4236 5.4139 37.9265 3.7454 35.1783 2.60706C32.4301 1.46871 29.4846 0.882812 26.5099 0.882812C20.5024 0.882813 14.7409 3.26931 10.4929 7.51729C6.24489 11.7653 3.8584 17.5268 3.8584 23.5343C3.8584 29.5419 6.24489 35.3034 10.4929 39.5514C14.7409 43.7994 20.5024 46.1858 26.5099 46.1858Z" fill="white"/>
<path fill-rule="evenodd" clip-rule="evenodd" d="M17.8569 37.85C18.2085 38.2007 18.4874 38.6173 18.6777 39.0759C18.8681 39.5346 18.966 40.0263 18.966 40.5229C18.966 41.0194 18.8681 41.5111 18.6777 41.9698C18.4874 42.4284 18.2085 42.8451 17.8569 43.1957L15.3048 45.7403C10.3935 50.653 7.63416 57.315 7.63351 64.2616V78.2754C7.63351 79.2766 7.23576 80.2369 6.52777 80.9449C5.81977 81.6529 4.85952 82.0506 3.85826 82.0506C2.857 82.0506 1.89675 81.6529 1.18875 80.9449C0.480756 80.2369 0.0830078 79.2766 0.0830078 78.2754V64.2616C0.0840782 55.3127 3.63919 46.7304 9.96662 40.4021L12.5111 37.85C12.8618 37.4984 13.2784 37.2195 13.7371 37.0291C14.1957 36.8388 14.6874 36.7409 15.184 36.7409C15.6806 36.7409 16.1723 36.8388 16.6309 37.0291C17.0896 37.2195 17.5062 37.4984 17.8569 37.85ZM106.892 35.5848C106.541 35.9355 106.262 36.3521 106.072 36.8108C105.881 37.2694 105.783 37.7611 105.783 38.2577C105.783 38.7543 105.881 39.246 106.072 39.7046C106.262 40.1633 106.541 40.5799 106.892 40.9306L109.445 43.4751C111.877 45.9074 113.806 48.7949 115.122 51.9728C116.439 55.1507 117.116 58.5568 117.116 61.9965V78.2754C117.116 79.2766 117.514 80.2369 118.222 80.9449C118.93 81.6529 119.89 82.0506 120.891 82.0506C121.892 82.0506 122.853 81.6529 123.561 80.9449C124.269 80.2369 124.666 79.2766 124.666 78.2754V61.9965C124.665 53.0475 121.11 44.4653 114.783 38.1369L112.238 35.5848C111.888 35.2333 111.471 34.9543 111.012 34.764C110.554 34.5737 110.062 34.4757 109.565 34.4757C109.069 34.4757 108.577 34.5737 108.118 34.764C107.66 34.9543 107.243 35.2333 106.892 35.5848Z" fill="white"/>
<path fill-rule="evenodd" clip-rule="evenodd" d="M94.4646 38.6353C90.4596 38.6353 86.6186 37.0443 83.7866 34.2123C80.9546 31.3804 79.3636 27.5394 79.3636 23.5343C79.3636 19.5293 80.9546 15.6883 83.7866 12.8563C86.6186 10.0243 90.4596 8.43332 94.4646 8.43332C98.4696 8.43332 102.311 10.0243 105.143 12.8563C107.975 15.6883 109.566 19.5293 109.566 23.5343C109.566 27.5394 107.975 31.3804 105.143 34.2123C102.311 37.0443 98.4696 38.6353 94.4646 38.6353ZM94.4646 46.1858C91.4899 46.1858 88.5444 45.5999 85.7962 44.4616C83.048 43.3233 80.5509 41.6548 78.4475 39.5514C76.3442 37.448 74.6757 34.9509 73.5373 32.2027C72.399 29.4545 71.8131 26.509 71.8131 23.5343C71.8131 20.5597 72.399 17.6142 73.5373 14.866C74.6757 12.1178 76.3442 9.62068 78.4475 7.51729C80.5509 5.4139 83.048 3.7454 85.7962 2.60706C88.5444 1.46871 91.4899 0.882812 94.4646 0.882812C100.472 0.882813 106.234 3.26931 110.482 7.51729C114.73 11.7653 117.116 17.5268 117.116 23.5343C117.116 29.5419 114.73 35.3034 110.482 39.5514C106.234 43.7994 100.472 46.1858 94.4646 46.1858ZM60.4873 70.725C55.481 70.725 50.6798 72.7137 47.1398 76.2537C43.5998 79.7937 41.6111 84.5949 41.6111 89.6012V99.4169C41.6111 100.418 41.2133 101.378 40.5053 102.086C39.7973 102.794 38.8371 103.192 37.8358 103.192C36.8345 103.192 35.8743 102.794 35.1663 102.086C34.4583 101.378 34.0605 100.418 34.0605 99.4169V89.6012C34.0605 82.5924 36.8448 75.8707 41.8008 70.9147C46.7568 65.9587 53.4785 63.1745 60.4873 63.1745C67.4961 63.1745 74.2179 65.9587 79.1739 70.9147C84.1298 75.8707 86.9141 82.5924 86.9141 89.6012V99.4169C86.9141 100.418 86.5163 101.378 85.8083 102.086C85.1003 102.794 84.1401 103.192 83.1388 103.192C82.1376 103.192 81.1773 102.794 80.4693 102.086C79.7613 101.378 79.3636 100.418 79.3636 99.4169V89.6012C79.3636 87.1224 78.8753 84.6678 77.9267 82.3776C76.9781 80.0874 75.5877 78.0065 73.8349 76.2537C72.082 74.5009 70.0011 73.1105 67.7109 72.1618C65.4208 71.2132 62.9662 70.725 60.4873 70.725Z" fill="white"/>
<path fill-rule="evenodd" clip-rule="evenodd" d="M60.4875 59.3993C64.4925 59.3993 68.3335 57.8083 71.1655 54.9763C73.9975 52.1443 75.5885 48.3033 75.5885 44.2982C75.5885 40.2932 73.9975 36.4522 71.1655 33.6202C68.3335 30.7882 64.4925 29.1972 60.4875 29.1972C56.4824 29.1972 52.6414 30.7882 49.8094 33.6202C46.9774 36.4522 45.3864 40.2932 45.3864 44.2982C45.3864 48.3033 46.9774 52.1443 49.8094 54.9763C52.6414 57.8083 56.4824 59.3993 60.4875 59.3993ZM60.4875 66.9498C66.495 66.9498 72.2565 64.5633 76.5045 60.3153C80.7525 56.0673 83.139 50.3058 83.139 44.2982C83.139 38.2907 80.7525 32.5292 76.5045 28.2812C72.2565 24.0332 66.495 21.6467 60.4875 21.6467C54.4799 21.6467 48.7184 24.0332 44.4704 28.2812C40.2224 32.5292 37.8359 38.2907 37.8359 44.2982C37.8359 50.3058 40.2224 56.0673 44.4704 60.3153C48.7184 64.5633 54.4799 66.9498 60.4875 66.9498Z" fill="white"/>
</svg>
