<svg width="56" height="56" viewBox="0 0 56 56" fill="none" xmlns="http://www.w3.org/2000/svg">
<g clip-path="url(#clip0_37_364)">
<path d="M28 13.4355C20.0967 13.4355 13.5483 19.871 13.5483 27.8872C13.5483 35.9033 19.9838 42.3388 28 42.3388C36.0161 42.3388 42.4516 35.7904 42.4516 27.8872C42.4516 19.9839 35.9032 13.4355 28 13.4355ZM28 37.1452C22.9193 37.1452 18.7419 32.9678 18.7419 27.8872C18.7419 22.8065 22.9193 18.6291 28 18.6291C33.0806 18.6291 37.258 22.8065 37.258 27.8872C37.258 32.9678 33.0806 37.1452 28 37.1452Z" fill="white"/>
<path d="M43.016 16.3707C44.8243 16.3707 46.2902 14.9047 46.2902 13.0965C46.2902 11.2882 44.8243 9.82227 43.016 9.82227C41.2077 9.82227 39.7418 11.2882 39.7418 13.0965C39.7418 14.9047 41.2077 16.3707 43.016 16.3707Z" fill="white"/>
<path d="M51.4839 4.62903C48.5484 1.58064 44.371 0 39.629 0H16.371C6.54839 0 0 6.54839 0 16.371V39.5161C0 44.371 1.58064 48.5484 4.74194 51.5968C7.79032 54.5323 11.8548 56 16.4839 56H39.5161C44.371 56 48.4355 54.4194 51.371 51.5968C54.4194 48.6613 56 44.4839 56 39.629V16.371C56 11.629 54.4194 7.56452 51.4839 4.62903ZM51.0323 39.629C51.0323 43.129 49.7903 45.9516 47.7581 47.871C45.7258 49.7903 42.9032 50.8065 39.5161 50.8065H16.4839C13.0968 50.8065 10.2742 49.7903 8.24194 47.871C6.20968 45.8387 5.19355 43.0161 5.19355 39.5161V16.371C5.19355 12.9839 6.20968 10.1613 8.24194 8.12903C10.1613 6.20968 13.0968 5.19355 16.4839 5.19355H39.7419C43.129 5.19355 45.9516 6.20968 47.9839 8.24194C49.9032 10.2742 51.0323 13.0968 51.0323 16.371V39.629Z" fill="white"/>
</g>
<defs>
<clipPath id="clip0_37_364">
<rect width="56" height="56" fill="white"/>
</clipPath>
</defs>
</svg>
