<svg width="51" height="56" viewBox="0 0 51 56" fill="none" xmlns="http://www.w3.org/2000/svg">
<g clip-path="url(#clip0_37_354)">
<path d="M11.5885 55.6297L0.809061 55.5681C0.799165 54.6436 1.04738 51.134 0.97481 49.9877C0.892348 48.7092 0.860186 43.6857 0.845343 42.4361C0.831325 41.1884 0.920384 35.6225 0.947597 34.0687C0.98388 31.9916 0.912138 29.9144 0.912138 27.8373C0.912138 24.8239 0.912138 21.3451 0.912138 18.6097C0.912138 18.6097 8.52669 17.5367 11.365 18.6097L11.3972 20.503C11.3931 21.5524 11.3824 25.7321 11.4195 26.7534C11.506 29.1049 11.6833 31.8467 11.5984 34.219C11.5143 36.5877 11.5646 39.8582 11.6207 42.179C11.7435 47.2867 11.6594 50.8144 11.5885 55.6297ZM8.89035 0.563725C5.5597 -1.0806 1.03088 1.01103 0.0388647 5.03583C-0.510333 7.26056 0.185647 10.063 1.78871 11.3352C9.79001 17.6816 16.9964 4.56498 8.89035 0.563725ZM51.1464 37.8409C51.1431 35.9611 50.7902 29.8809 50.697 28.7237C50.6236 27.8128 50.6236 27.8128 50.3605 25.9104C50.1964 24.7252 49.4312 23.6758 48.6989 22.8029C46.611 20.3129 44.34 19.1991 41.5132 18.1171C39.2034 17.2343 37.3596 17.9116 35.077 18.2439C32.463 18.6223 28.4454 23.6694 28.4454 23.6694C28.2871 22.4996 28.4454 20.0294 28.2904 18.6015C26.6271 18.4684 25.2228 18.5698 23.4433 18.4874C21.9053 18.415 20.1332 18.5209 18.1055 18.4874C18.1055 18.4874 18.0296 24.1122 17.9933 25.7819C17.9562 27.4606 18.009 29.143 17.9933 30.8226C17.9653 33.9628 18.1583 37.3501 18.2745 40.5129C18.4634 45.6777 18.2069 51.1123 18.2185 56H19.2303C22.4512 56 25.3349 56 28.5576 56C28.5576 56 28.5864 51.2898 28.5015 49.9533C28.3778 47.9839 28.3885 35.4541 28.5576 33.1089C28.7266 30.7647 30.9894 27.7313 34.6259 27.7413C35.975 27.7449 37.7933 27.984 38.8142 29.0678C39.4252 29.7161 40.249 31.9698 40.4717 34.3286C40.6952 36.6873 40.5822 48.8369 40.5822 55.8769L51.0343 56C50.3985 54.4924 51.1489 39.9859 51.1464 37.8409Z" fill="white"/>
</g>
<defs>
<clipPath id="clip0_37_354">
<rect width="51" height="56" fill="white"/>
</clipPath>
</defs>
</svg>
