<svg width="17" height="14" viewBox="0 0 17 14" fill="none" xmlns="http://www.w3.org/2000/svg">
<path d="M16.6988 7.70853L10.5798 13.7067C10.3882 13.8945 10.1284 14 9.85745 14C9.58651 14 9.32666 13.8945 9.13508 13.7067C8.94349 13.5189 8.83586 13.2642 8.83586 12.9986C8.83586 12.733 8.94349 12.4783 9.13508 12.2905L13.5127 8.00094H1.01982C0.74935 8.00094 0.489954 7.89562 0.2987 7.70814C0.107445 7.52066 0 7.26638 0 7.00125C0 6.73611 0.107445 6.48184 0.2987 6.29436C0.489954 6.10688 0.74935 6.00156 1.01982 6.00156H13.5127L9.13677 1.70954C8.94519 1.52174 8.83756 1.26702 8.83756 1.00143C8.83756 0.735832 8.94519 0.481115 9.13677 0.293311C9.32836 0.105507 9.58821 3.95767e-09 9.85915 0C10.1301 -3.95767e-09 10.3899 0.105507 10.5815 0.293311L16.7005 6.29147C16.7956 6.38447 16.871 6.49497 16.9224 6.61662C16.9738 6.73827 17.0002 6.86867 17 7.00035C16.9998 7.13202 16.9731 7.26236 16.9215 7.3839C16.8698 7.50543 16.7941 7.61575 16.6988 7.70853Z" fill="#262626"/>
</svg>
